<svg width="36" height="37" viewBox="0 0 36 37" fill="none" xmlns="http://www.w3.org/2000/svg">
<path d="M5.81415 9.50581C5.81415 8.72428 6.08861 8.07952 6.63752 7.57155C7.18642 7.06356 7.90002 6.80957 8.77827 6.80957C9.64085 6.80957 10.3387 7.05964 10.872 7.55983C11.4209 8.07563 11.6953 8.74772 11.6953 9.57615C11.6953 10.3264 11.4287 10.9516 10.8955 11.4518C10.3466 11.9676 9.62516 12.2255 8.73122 12.2255H8.7077C7.84511 12.2255 7.14723 11.9676 6.61399 11.4518C6.08075 10.936 5.81415 10.2873 5.81415 9.50581ZM6.11997 30.0207V14.359H11.3425V30.0207H6.11997ZM14.236 30.0207H19.4585V21.2755C19.4585 20.7284 19.5213 20.3064 19.6467 20.0094C19.8663 19.478 20.1995 19.0286 20.6465 18.6613C21.0935 18.294 21.6542 18.1103 22.3285 18.1103C24.0851 18.1103 24.9633 19.2904 24.9633 21.6506V30.0207H30.1858V21.041C30.1858 18.7277 29.6369 16.9732 28.5391 15.7775C27.4412 14.5818 25.9906 13.9839 24.187 13.9839C22.1639 13.9839 20.5877 14.8514 19.4585 16.5864V16.6333H19.435L19.4585 16.5864V14.359H14.236C14.2674 14.8592 14.2831 16.4144 14.2831 19.0247C14.2831 21.635 14.2674 25.3003 14.236 30.0207Z" fill="white"/>
</svg>
