<svg width="36" height="37" viewBox="0 0 36 37" fill="none" xmlns="http://www.w3.org/2000/svg">
<path d="M22.2789 8.09833V8.09375H23.4719L23.9078 8.18081C24.1984 8.23734 24.4623 8.31141 24.6994 8.40305C24.9364 8.4947 25.1659 8.60163 25.3876 8.72381C25.6094 8.846 25.8106 8.9705 25.9911 9.09727C26.17 9.22252 26.3306 9.35541 26.4729 9.49592C26.6136 9.63797 26.8331 9.67463 27.1313 9.6059C27.4296 9.53716 27.7508 9.44169 28.0949 9.31951C28.4391 9.19732 28.7794 9.05985 29.1159 8.9071C29.4524 8.75435 29.6574 8.65737 29.7308 8.61613C29.8027 8.57338 29.8409 8.55046 29.8455 8.54739L29.8501 8.54052L29.873 8.52907L29.896 8.51761L29.9189 8.50615L29.9418 8.4947L29.9464 8.48782L29.9533 8.48324L29.9602 8.47866L29.9648 8.47179L29.9877 8.46491L30.0107 8.46033L30.0061 8.4947L29.9992 8.52907L29.9877 8.56343L29.9763 8.5978L29.9648 8.62071L29.9533 8.64362L29.9418 8.67799C29.9342 8.7009 29.9266 8.73144 29.9189 8.76963C29.9113 8.80783 29.8386 8.96055 29.7009 9.22786C29.5633 9.49517 29.3912 9.76628 29.1847 10.0412C28.9782 10.3161 28.7932 10.5239 28.6295 10.6644C28.4643 10.8065 28.355 10.9057 28.3014 10.9622C28.2479 11.0203 28.1829 11.0737 28.1064 11.1226L27.9917 11.1982L27.9687 11.2097L27.9458 11.2211L27.9412 11.228L27.9343 11.2326L27.9274 11.2372L27.9229 11.2441L27.8999 11.2555L27.877 11.267L27.8724 11.2738L27.8655 11.2784L27.8586 11.283L27.854 11.2899L27.8495 11.2968L27.8426 11.3013L27.8357 11.3059L27.8311 11.3128H27.9458L28.5882 11.1753C29.0165 11.0837 29.4256 10.9729 29.8157 10.8431L30.4351 10.6369L30.5039 10.614L30.5384 10.6025L30.5613 10.5911L30.5842 10.5796L30.6072 10.5682L30.6301 10.5567L30.676 10.5498L30.7219 10.5453V10.5911L30.7104 10.5957L30.699 10.6025L30.6944 10.6094L30.6875 10.614L30.6806 10.6186L30.676 10.6255L30.6714 10.6323L30.6645 10.6369L30.6577 10.6415L30.6531 10.6484L30.6485 10.6552L30.6416 10.6598L30.6301 10.6827L30.6187 10.7056L30.6118 10.7102C30.6087 10.7148 30.5116 10.8446 30.3204 11.0997C30.1292 11.3563 30.026 11.4861 30.0107 11.4892C29.9954 11.4938 29.974 11.5167 29.9464 11.5579C29.9204 11.6007 29.7583 11.771 29.46 12.0689C29.1618 12.3667 28.8697 12.6317 28.5836 12.8639C28.2961 13.0976 28.1508 13.3847 28.1477 13.7254C28.1431 14.0644 28.1255 14.4478 28.0949 14.8755C28.0643 15.3032 28.007 15.7652 27.9229 16.2616C27.8387 16.7581 27.7087 17.3194 27.5328 17.9456C27.3569 18.5719 27.1428 19.1828 26.8904 19.7785C26.638 20.3742 26.3742 20.9088 26.0989 21.3823C25.8236 21.8558 25.5712 22.2568 25.3418 22.5852C25.1123 22.9136 24.8791 23.2229 24.642 23.5131C24.4049 23.8033 24.1052 24.1302 23.7427 24.4937C23.3786 24.8557 23.1798 25.0543 23.1461 25.0894C23.111 25.123 22.9611 25.2482 22.6964 25.4651C22.4334 25.6835 22.1504 25.9019 21.8475 26.1204C21.5462 26.3373 21.2694 26.5183 21.017 26.6634C20.7646 26.8085 20.4603 26.9742 20.1039 27.1606C19.749 27.3484 19.3651 27.5226 18.9521 27.6829C18.5392 27.8433 18.1032 27.9922 17.6444 28.1297C17.1855 28.2672 16.742 28.3741 16.3137 28.4505C15.8854 28.5268 15.3998 28.5918 14.8568 28.6452L14.0423 28.7254V28.7369H12.551V28.7254L12.356 28.7139C12.226 28.7063 12.1189 28.6987 12.0348 28.691C11.9507 28.6834 11.6333 28.6414 11.0827 28.565C10.532 28.4887 10.0999 28.4123 9.78638 28.3359C9.47284 28.2595 9.00632 28.1144 8.38686 27.9006C7.7674 27.6868 7.23741 27.4706 6.79691 27.2522C6.35794 27.0353 6.08262 26.8978 5.97096 26.8398C5.86083 26.7833 5.73694 26.713 5.59928 26.629L5.39279 26.503L5.38823 26.4961L5.38132 26.4915L5.37444 26.487L5.36985 26.4801L5.34691 26.4686L5.32396 26.4572L5.3194 26.4503L5.31249 26.4457L5.30561 26.4411L5.30102 26.4343L5.29645 26.4274L5.28955 26.4228H5.27808V26.377L5.30102 26.3816L5.32396 26.3884L5.42721 26.3999C5.49604 26.4075 5.68341 26.419 5.98931 26.4343C6.29523 26.4496 6.62024 26.4496 6.96439 26.4343C7.30853 26.419 7.66034 26.3846 8.01977 26.3312C8.37922 26.2777 8.80366 26.1861 9.29311 26.0562C9.78257 25.9264 10.2323 25.7721 10.6422 25.5934C11.0506 25.4132 11.3412 25.2788 11.514 25.1902C11.6853 25.1031 11.9469 24.9412 12.2986 24.7045L12.8263 24.3493L12.8309 24.3425L12.8378 24.3379L12.8447 24.3333L12.8493 24.3264L12.8539 24.3196L12.8607 24.315L12.8677 24.3104L12.8722 24.3035L12.8952 24.2966L12.9181 24.2921L12.9227 24.2691L12.9296 24.2462L12.9365 24.2417L12.941 24.2348L12.7575 24.2233C12.6352 24.2157 12.5166 24.208 12.4019 24.2004C12.2872 24.1928 12.1075 24.1584 11.8627 24.0973C11.618 24.0362 11.3542 23.9446 11.0712 23.8224C10.7882 23.7002 10.5129 23.5551 10.2452 23.3871C9.97759 23.2191 9.78409 23.0793 9.66478 22.9678C9.54702 22.8578 9.39406 22.702 9.20592 22.5004C9.01933 22.2973 8.85719 22.0887 8.71953 21.8749C8.58187 21.6611 8.45034 21.4144 8.32493 21.1349L8.13448 20.7179L8.12301 20.6835L8.11154 20.6492L8.10466 20.6262L8.10007 20.6033L8.13448 20.6079L8.1689 20.6148L8.42127 20.6492C8.58954 20.6721 8.85338 20.6797 9.21281 20.6721C9.57226 20.6644 9.8208 20.6492 9.95846 20.6262C10.0961 20.6033 10.1802 20.5881 10.2108 20.5804L10.2567 20.569L10.3141 20.5575L10.3714 20.5461L10.376 20.5392L10.3829 20.5346L10.3898 20.53L10.3944 20.5231L10.3485 20.5117L10.3026 20.5002L10.2567 20.4888L10.2108 20.4773L10.1649 20.4659C10.1344 20.4582 10.0808 20.443 10.0043 20.42C9.92787 20.3971 9.72139 20.3131 9.38488 20.168C9.0484 20.0229 8.78072 19.8816 8.58187 19.7442C8.38253 19.6063 8.19246 19.4555 8.01289 19.2928C7.83393 19.1278 7.6374 18.9155 7.42325 18.6559C7.20912 18.3962 7.01794 18.0945 6.84967 17.7509C6.68143 17.4072 6.55525 17.0788 6.47111 16.7657C6.38732 16.4544 6.33204 16.1362 6.30595 15.8149L6.26463 15.3337L6.28757 15.3383L6.31051 15.3452L6.33346 15.3566L6.3564 15.3681L6.37934 15.3796L6.40228 15.391L6.7579 15.5514C6.995 15.6583 7.28942 15.75 7.64121 15.8263C7.99302 15.9027 8.20331 15.9447 8.27214 15.9523L8.37539 15.9638H8.58187L8.57731 15.9569L8.5704 15.9523L8.56352 15.9478L8.55893 15.9409L8.55436 15.934L8.54746 15.9294L8.54058 15.9248L8.53599 15.918L8.51304 15.9065L8.4901 15.8951L8.48554 15.8882L8.47863 15.8836L8.47175 15.879L8.46716 15.8721L8.44422 15.8607L8.42127 15.8492L8.41671 15.8424C8.41212 15.8393 8.34634 15.7904 8.21937 15.6957C8.09394 15.5995 7.96241 15.475 7.82475 15.3223C7.68709 15.1695 7.54944 15.0091 7.41178 14.8411C7.27387 14.6727 7.15103 14.4926 7.04469 14.3027C6.93764 14.1118 6.82444 13.8689 6.70513 13.5741C6.58737 13.2809 6.49789 12.9853 6.4367 12.6875C6.37553 12.3896 6.34112 12.0956 6.33346 11.8054C6.32582 11.5152 6.33346 11.267 6.3564 11.0608C6.37934 10.8546 6.42523 10.6216 6.49406 10.362C6.56289 10.1023 6.66232 9.82738 6.79232 9.53716L6.98733 9.10185L6.9988 9.06748L7.01028 9.03311L7.01718 9.02853L7.02175 9.02166L7.02634 9.01479L7.03322 9.0102L7.04012 9.01479L7.04469 9.02166L7.04928 9.02853L7.05616 9.03311L7.06307 9.0377L7.06763 9.04457L7.07222 9.05144L7.0791 9.05603L7.09058 9.07894L7.10205 9.10185L7.10895 9.10643L7.11352 9.1133L7.42325 9.45697C7.62974 9.68609 7.87447 9.94194 8.15743 10.2245C8.44041 10.5071 8.59718 10.6537 8.62776 10.6644C8.65837 10.6766 8.69659 10.7117 8.74247 10.7698C8.78836 10.8263 8.94132 10.9615 9.20134 11.1753C9.46137 11.3892 9.80169 11.6374 10.2223 11.9199C10.6429 12.2025 11.1094 12.4813 11.6218 12.7562C12.1342 13.0311 12.6849 13.2793 13.2737 13.5008C13.8626 13.7223 14.2756 13.8674 14.5126 13.9361C14.7497 14.0049 15.1551 14.0927 15.7286 14.1996C16.3022 14.3065 16.7343 14.3753 17.0249 14.4058C17.3155 14.4364 17.5144 14.4539 17.6214 14.4585L17.782 14.4631L17.7775 14.4287L17.7706 14.3944L17.7247 14.108C17.6941 13.9171 17.6788 13.6497 17.6788 13.3061C17.6788 12.9624 17.7056 12.6455 17.7591 12.3553C17.8126 12.065 17.8929 11.771 18 11.4732C18.1071 11.1753 18.2118 10.9363 18.3143 10.756C18.4183 10.5773 18.5545 10.3734 18.7227 10.1443C18.891 9.9152 19.1089 9.67846 19.3766 9.43406C19.6442 9.18967 19.9501 8.97201 20.2943 8.78109C20.6384 8.59017 20.9558 8.44505 21.2464 8.34577C21.537 8.2465 21.7818 8.18157 21.9806 8.15103C22.1795 8.12049 22.2789 8.10291 22.2789 8.09833Z" fill="white"/>
</svg>
